<?xml version="1.0" encoding="utf-8"?>
<!-- Generator: Adobe Illustrator 27.5.0, SVG Export Plug-In . SVG Version: 6.00 Build 0)  -->
<svg version="1.1" xmlns="http://www.w3.org/2000/svg" xmlns:xlink="http://www.w3.org/1999/xlink" x="0px" y="0px"
	 viewBox="0 0 500 500" style="enable-background:new 0 0 500 500;" xml:space="preserve">
<g id="BACKGROUND">
	<rect style="fill:#FFFFFF;" width="500" height="500"/>
</g>
<g id="OBJECTS">
	<path style="fill:#F7F1D5;" d="M259.575,449.979c-161.67-7.724-244.211-258.458-142.578-323.016S396.948,137.133,440.759,250
		C476.759,342.745,387.838,456.106,259.575,449.979z"/>
	<g>
		<defs>
			<rect id="SVGID_1_" width="500" height="500"/>
		</defs>
		<clipPath id="SVGID_00000046326830509368193900000001594256215859974323_">
			<use xlink:href="#SVGID_1_"  style="overflow:visible;"/>
		</clipPath>
		<g style="clip-path:url(#SVGID_00000046326830509368193900000001594256215859974323_);">
			<g>
				<path style="fill:#0F173E;" d="M362.888,389.876H191.893c-1.908,39.422-15.969,88.072-35.203,126.061H360.97
					C371.888,471.681,368.095,416.532,362.888,389.876z"/>
				<g>
					<path style="fill:none;stroke:#FFFFFF;stroke-width:0.75;stroke-miterlimit:10;" d="M307.486,397.766
						c0.941,24.949-0.397,49.983-3.993,74.689"/>
					<path style="fill:none;stroke:#FFFFFF;stroke-width:0.75;stroke-miterlimit:10;" d="M315.428,398.404
						c0,0-0.555,41.872-2.157,45.362c-1.602,3.489-6.939,3.924-6.939,3.924"/>
					<path style="fill:none;stroke:#FFFFFF;stroke-width:0.75;stroke-miterlimit:10;" d="M220.586,395.114
						c-6.184,14.144-16.285,26.552-28.881,35.476"/>
					<path style="fill:none;stroke:#FFFFFF;stroke-width:0.75;stroke-miterlimit:10;" d="M350.44,394.423
						c2.216,14.432,7.55,28.377,15.531,40.604"/>
					<path style="fill:none;stroke:#FFFFFF;stroke-width:0.75;stroke-miterlimit:10;" d="M278.934,478.997
						c-19.817-16.541-45.371-26.072-71.179-26.546"/>
					<path style="fill:none;stroke:#FFFFFF;stroke-width:0.75;stroke-miterlimit:10;" d="M203.85,465.754
						c16.404,1.21,32.65,4.535,48.21,9.867"/>
				</g>
			</g>
			<g>
				<g>
					<path style="fill:#BC452E;" d="M313.271,187.741c39.76,3.854,108.405,89.596,108.678,116.555
						c0.273,26.959-62.073,87.499-62.073,87.499l-16.176-63.631l19.342-29.024c-4.903-1.234,0.649-5.627,0.649-5.627
						C357.244,290.909,335.584,271,335.584,271L313.271,187.741z"/>
				</g>
				<g>
					<g>
						<path style="fill:#EA6B44;" d="M361.721,377.209l-171.736,0.345c0,0-4.918,12.157-3.082,14.553
							c3.162,4.128,56.766,13.021,107.149,11.83c50.383-1.191,70.468-7.064,72.17-11.064
							C367.924,388.872,361.721,377.209,361.721,377.209z"/>
						<g>
							
								<line style="fill:none;stroke:#0F173E;stroke-width:0.75;stroke-linecap:round;stroke-linejoin:round;stroke-miterlimit:10;" x1="352.831" y1="380.149" x2="357.044" y2="392.404"/>
							
								<line style="fill:none;stroke:#0F173E;stroke-width:0.75;stroke-linecap:round;stroke-linejoin:round;stroke-miterlimit:10;" x1="336.618" y1="382.447" x2="340.32" y2="396.234"/>
							
								<line style="fill:none;stroke:#0F173E;stroke-width:0.75;stroke-linecap:round;stroke-linejoin:round;stroke-miterlimit:10;" x1="315.81" y1="383.851" x2="318.235" y2="398.404"/>
							
								<line style="fill:none;stroke:#0F173E;stroke-width:0.75;stroke-linecap:round;stroke-linejoin:round;stroke-miterlimit:10;" x1="294.49" y1="384.106" x2="295.639" y2="399.936"/>
							
								<line style="fill:none;stroke:#0F173E;stroke-width:0.75;stroke-linecap:round;stroke-linejoin:round;stroke-miterlimit:10;" x1="270.618" y1="383.468" x2="269.469" y2="399.681"/>
							
								<line style="fill:none;stroke:#0F173E;stroke-width:0.75;stroke-linecap:round;stroke-linejoin:round;stroke-miterlimit:10;" x1="245.852" y1="382.574" x2="242.15" y2="397.766"/>
							
								<line style="fill:none;stroke:#0F173E;stroke-width:0.75;stroke-linecap:round;stroke-linejoin:round;stroke-miterlimit:10;" x1="221.725" y1="380.915" x2="216.746" y2="393.681"/>
							
								<line style="fill:none;stroke:#0F173E;stroke-width:0.75;stroke-linecap:round;stroke-linejoin:round;stroke-miterlimit:10;" x1="202.448" y1="378.234" x2="197.342" y2="391.128"/>
						</g>
					</g>
					<path style="fill:#BC452E;" d="M361.717,363.34c0,0,7.24,8.64,4.93,15.11c-3.79,10.62-137.427,15.784-176.66-0.25
						c-6.74-4.18-2.53-14.01-2.53-14.01s-10.71-1.44-10.2-7.92c0.52-6.49,8.49-15.82,8.52-31.48c0.02-15.66-18.35-78.81-18.35-78.81
						l-2.94-88.62c14.08,1.59,34.27,6.9,52.38,12.33c22.78,6.81,42.29,13.8,42.29,13.8l37.7,2.96l16.41,1.29
						c23.34,42.07,38.03,131.71,40.36,137.39c2.32,5.67,15.74,17.02,17.49,25.02C372.858,358.15,361.717,363.34,361.717,363.34z"/>
					<g>
						<g>
							<polygon style="fill:#EA6B44;" points="210.881,251.11 230.444,268.45 242.003,252.152 259.544,268.458 269.625,253.077 
								285.46,268.466 294.305,253.904 308.686,268.472 316.489,254.646 329.621,268.478 337.399,253.68 323.172,238.063 
								315.74,251.11 301.919,236.48 293.518,250.179 278.34,234.724 268.796,249.143 252.034,232.765 241.128,247.984 
								222.499,230.565 209.953,246.678 189.099,228.078 172.63,247.47 197.534,268.44 							"/>
							<polygon style="fill:#EA6B44;" points="323.048,285.615 309.402,271.857 301.196,286.521 286.213,272.035 276.885,287.53 
								260.339,272.235 249.673,288.66 231.285,272.458 219.009,289.932 198.426,272.711 182.302,293.858 206.879,313.156 
								219.939,294.373 239.246,310.415 250.55,292.836 267.863,307.992 277.715,291.471 293.345,305.835 301.984,290.252 
								316.18,303.901 323.798,289.156 336.762,302.158 344.35,286.426 330.303,271.696 							"/>
						</g>
					</g>
					<path style="fill:#7A171D;" d="M275.838,222.47c-27.21-1.65-52.74-42.18-58.97-52.78c22.78,6.81,42.29,13.8,42.29,13.8
						l37.7,2.96C297.638,202.86,294.917,223.62,275.838,222.47z"/>
					<g>
						<path style="fill:#7A171D;" d="M237.192,121.354c-27.778,4.241-21.883-22.703-21.883-22.703
							c-7.938,2.433-14.321-10.014-1.491-7.205c-4.277-17.17,4.111-20.845,5.917-12.529c14.444-32.216,57.976-47,64.104-37.502
							c6.128,9.499-2.997,20.094-2.997,20.094c12.189,0.808,10.806,9.83,5.114,13.915c3.245,8.085,0.145,16.402-6.542,19.027
							C272.726,97.077,237.192,121.354,237.192,121.354z"/>
						<polygon style="fill:#0F173E;" points="296.229,171.413 260.888,166.766 230.102,165.809 274.288,207.902 						"/>
						<path style="fill:#FB7070;" d="M293.159,197.213l-15.087-56.809c0,0,13.044,0.383,15.342-10.468
							c2.298-10.851-23.916-55.091-23.916-55.091l-36.833,6.58l7.783,108.544l33.84,17.933L293.159,197.213z"/>
						<path style="fill:#7A171D;" d="M274.58,80.517c-22.826-8.325-34.24,3.124-34.24,3.124c0.946,6.423-5.352,8.472-5.352,8.472
							l-0.193,19.023c0,0-9.174-9.668-9.086-22.775c0.088-13.106,44.699-19.489,44.699-19.489L274.58,80.517z"/>
						<g>
							
								<path style="fill:none;stroke:#0F173E;stroke-width:0.75;stroke-linecap:round;stroke-linejoin:round;stroke-miterlimit:10;" d="
								M260.888,94.142c-0.929-1.208-2.483-1.963-3.994-1.763c-1.511,0.2-2.872,1.446-3.039,2.96"/>
							
								<path style="fill:none;stroke:#0F173E;stroke-width:0.75;stroke-linecap:round;stroke-linejoin:round;stroke-miterlimit:10;" d="
								M272.757,93.184c0.01-0.778,0.509-1.512,1.2-1.869c0.691-0.357,1.541-0.352,2.259-0.052c0.717,0.3,1.302,0.876,1.68,1.556"/>
							
								<path style="fill:none;stroke:#0F173E;stroke-width:0.75;stroke-linecap:round;stroke-linejoin:round;stroke-miterlimit:10;" d="
								M270.408,96.155c0.911,0.363,1.823,0.725,2.734,1.088c0.308,0.123,0.624,0.249,0.873,0.468
								c0.475,0.417,0.631,1.111,0.541,1.737c-0.091,0.626-0.393,1.199-0.712,1.745"/>
							<path style="fill:#FFFFFF;" d="M279.754,103.213l-16.851,1.106C270.01,120.702,284.988,117.277,279.754,103.213z"/>
						</g>
					</g>
					<g>
						
							<path style="fill:none;stroke:#0F173E;stroke-width:0.75;stroke-linecap:round;stroke-linejoin:round;stroke-miterlimit:10;" d="
							M287.574,202.347c2.289,2.567,3.854,5.773,4.467,9.158"/>
						
							<path style="fill:none;stroke:#0F173E;stroke-width:0.75;stroke-linecap:round;stroke-linejoin:round;stroke-miterlimit:10;" d="
							M280.328,206.149c1.99,3.999,3.109,8.429,3.257,12.893"/>
						
							<path style="fill:none;stroke:#0F173E;stroke-width:0.75;stroke-linecap:round;stroke-linejoin:round;stroke-miterlimit:10;" d="
							M274.648,209.404c0,3.596,0,7.191,0,10.787"/>
						
							<path style="fill:none;stroke:#0F173E;stroke-width:0.75;stroke-linecap:round;stroke-linejoin:round;stroke-miterlimit:10;" d="
							M264.899,217.138c0.526-3.767,1.346-7.493,2.45-11.133"/>
						
							<path style="fill:none;stroke:#0F173E;stroke-width:0.75;stroke-linecap:round;stroke-linejoin:round;stroke-miterlimit:10;" d="
							M256.634,211.572c0.701-3.446,2.199-6.729,4.342-9.517"/>
					</g>
					<path style="fill:#58573B;" d="M296.229,171.413l-14.715,10.796l-7.226,24.841l-12.2-25.959l-31.986-15.282l-5.071,11.225
						c15.234,18.902,33.184,34.116,50.124,33.233c16.94-0.884,24.141-27.403,24.141-27.403L296.229,171.413z"/>
					<polygon style="fill:#D8C264;" points="296.229,171.413 307.308,184.954 293,206.516 281.514,182.209 					"/>
					<polygon style="fill:#D8C264;" points="262.088,181.091 247.489,210.036 218.818,185.137 230.102,165.809 					"/>
				</g>
				<g>
					<path style="fill:#BC452E;" d="M164.483,157.361c-23.111-2.617-40.505,14.743-55.298,55.765s-26.871,79.245,16.87,85.496
						s115.131-135.384,115.131-135.384l-21.428-14.786l-52.901,40.73L164.483,157.361z"/>
					<g>
						
							<line style="fill:none;stroke:#0F173E;stroke-width:0.75;stroke-linecap:round;stroke-linejoin:round;stroke-miterlimit:10;" x1="211.723" y1="154.638" x2="123.627" y2="223.255"/>
						
							<path style="fill:none;stroke:#0F173E;stroke-width:0.75;stroke-linecap:round;stroke-linejoin:round;stroke-miterlimit:10;" d="
							M192.549,181.521c-2.863,29.941-12.222,59.244-27.244,85.301"/>
						
							<path style="fill:none;stroke:#0F173E;stroke-width:0.75;stroke-linecap:round;stroke-linejoin:round;stroke-miterlimit:10;" d="
							M123.627,223.255c-10.139,8.723-14.588,18.411-18.072,28.549"/>
						
							<path style="fill:none;stroke:#0F173E;stroke-width:0.75;stroke-linecap:round;stroke-linejoin:round;stroke-miterlimit:10;" d="
							M111.494,223.697c5.803-5.845,13.756-9.506,21.97-10.114"/>
						
							<path style="fill:none;stroke:#0F173E;stroke-width:0.75;stroke-linecap:round;stroke-linejoin:round;stroke-miterlimit:10;" d="
							M127.712,196.293c5.677,0.027,11.277,2.822,14.71,7.344"/>
					</g>
					<g>
						<g>
							<polygon style="fill:#0F173E;" points="223.146,96.433 211.892,121.126 255.22,146.277 266.013,121.28 							"/>
							<path style="fill:#FB7070;" d="M219.758,148.452l4.597-4.771c0,0-9.761-12.757-9.607-17.08
								c0.154-4.324,4.288-18.306,7.295-21.017c3.008-2.711,15.978-5.578,16.589-3.804c0.611,1.774-5.943,7.482-10.155,7.117
								l-2.769,9.455c0,0,4.334-5.522,5.934-6.416c1.6-0.894,13.569-2.471,14.287-0.916c0.718,1.555-0.854,2.481-0.854,2.481
								s3.572,0.265,3.912,1.925c0.34,1.66-6.491,5.382-9.863,4.436l-2.867,4.515c0,0,5.143-2.816,7.192-3.075
								c2.049-0.258,7.538,0.53,7.793,1.753c0.255,1.223-3.734,2.985-5.995,2.04l-4.267,2.46c0,0,12.507,6.41,10.704,17.226
								s-10.5,18.459-10.5,18.459L219.758,148.452z"/>
						</g>
						
							<path style="fill:none;stroke:#0F173E;stroke-width:0.75;stroke-linecap:round;stroke-linejoin:round;stroke-miterlimit:10;" d="
							M244.49,113.425c0,0-8,0-9.574,1.106c-1.574,1.106-4.596,7.106-4.596,7.106"/>
						
							<path style="fill:none;stroke:#0F173E;stroke-width:0.75;stroke-linecap:round;stroke-linejoin:round;stroke-miterlimit:10;" d="
							M251.807,145.017c-1.168,6.009-4.078,11.669-8.286,16.115"/>
					</g>
					<g>
						<path style="fill:#EA6B44;" d="M219.754,144.713l-9.277,6.919c7.064,15.879,28.426,21.944,28.426,21.944l5.394-11.086
							C228.16,155.536,219.754,144.713,219.754,144.713z"/>
						
							<line style="fill:none;stroke:#0F173E;stroke-width:0.75;stroke-linecap:round;stroke-linejoin:round;stroke-miterlimit:10;" x1="220.265" y1="148.383" x2="212.797" y2="153.17"/>
						
							<line style="fill:none;stroke:#0F173E;stroke-width:0.75;stroke-linecap:round;stroke-linejoin:round;stroke-miterlimit:10;" x1="222.882" y1="151.574" x2="216.818" y2="157.702"/>
						
							<line style="fill:none;stroke:#0F173E;stroke-width:0.75;stroke-linecap:round;stroke-linejoin:round;stroke-miterlimit:10;" x1="226.776" y1="155.915" x2="221.286" y2="162.681"/>
						
							<line style="fill:none;stroke:#0F173E;stroke-width:0.75;stroke-linecap:round;stroke-linejoin:round;stroke-miterlimit:10;" x1="231.308" y1="158.979" x2="228.244" y2="166.766"/>
						
							<line style="fill:none;stroke:#0F173E;stroke-width:0.75;stroke-linecap:round;stroke-linejoin:round;stroke-miterlimit:10;" x1="237.244" y1="161.915" x2="234.818" y2="170.404"/>
					</g>
					
						<path style="fill:none;stroke:#0F173E;stroke-width:0.75;stroke-linecap:round;stroke-linejoin:round;stroke-miterlimit:10;" d="
						M164.487,159.298c2.599,14.553,2.408,30.256,2.408,30.256"/>
					
						<path style="fill:none;stroke:#0F173E;stroke-width:0.75;stroke-linecap:round;stroke-linejoin:round;stroke-miterlimit:10;" d="
						M225.932,191.314c0,0-33.62,58.423-52.29,76.965"/>
				</g>
				<g>
					
						<path style="fill:none;stroke:#0F173E;stroke-width:0.75;stroke-linecap:round;stroke-linejoin:round;stroke-miterlimit:10;" d="
						M316.903,191.851c20.18,48.83,25.669,84.766,25.669,84.766"/>
					
						<path style="fill:none;stroke:#0F173E;stroke-width:0.75;stroke-linecap:round;stroke-linejoin:round;stroke-miterlimit:10;" d="
						M366.648,378.45c2.31-6.47-4.93-15.11-4.93-15.11s11.14-5.19,9.4-13.19c-1.75-8-15.815-19.127-17.49-25.02
						c-1.171-4.121-2.02-8.482-2.02-8.482"/>
					
						<line style="fill:none;stroke:#0F173E;stroke-width:0.75;stroke-linecap:round;stroke-linejoin:round;stroke-miterlimit:10;" x1="344.35" y1="253.383" x2="374.988" y2="264.745"/>
					
						<line style="fill:none;stroke:#0F173E;stroke-width:0.75;stroke-linecap:round;stroke-linejoin:round;stroke-miterlimit:10;" x1="349.967" y1="270.617" x2="365.542" y2="280.064"/>
					
						<path style="fill:none;stroke:#0F173E;stroke-width:0.75;stroke-linecap:round;stroke-linejoin:round;stroke-miterlimit:10;" d="
						M364.769,298.2c6.045-1.231,12.391-0.954,18.305,0.799"/>
					
						<path style="fill:none;stroke:#0F173E;stroke-width:0.75;stroke-linecap:round;stroke-linejoin:round;stroke-miterlimit:10;" d="
						M366.059,293.002c2.334-0.354,4.697-0.516,7.057-0.482"/>
					
						<path style="fill:none;stroke:#0F173E;stroke-width:0.75;stroke-linecap:round;stroke-linejoin:round;stroke-miterlimit:10;" d="
						M220.718,213.157c10.536,28.735,33.877,52.502,62.417,63.556"/>
					
						<path style="fill:none;stroke:#0F173E;stroke-width:0.75;stroke-linecap:round;stroke-linejoin:round;stroke-miterlimit:10;" d="
						M191.824,269.258c14.609,32.601,41.895,59.322,74.795,73.247"/>
				</g>
			</g>
		</g>
	</g>
	<g>
		<g>
			<polygon style="fill:#0F173E;" points="306.112,111.125 318.059,85.594 325.633,91.041 			"/>
			<polygon style="fill:#0F173E;" points="307.798,114.826 339.602,96.732 342.597,106.96 			"/>
			<polygon style="fill:#0F173E;" points="319.194,116.9 342.569,115.753 341.766,120.545 			"/>
		</g>
	</g>
</g>
</svg>
